<?xml version="1.0" encoding="UTF-8" standalone="no"?>
<svg
   xmlns:dc="http://purl.org/dc/elements/1.1/"
   xmlns:cc="http://creativecommons.org/ns#"
   xmlns:rdf="http://www.w3.org/1999/02/22-rdf-syntax-ns#"
   xmlns:svg="http://www.w3.org/2000/svg"
   xmlns="http://www.w3.org/2000/svg"
   xmlns:sodipodi="http://sodipodi.sourceforge.net/DTD/sodipodi-0.dtd"
   xmlns:inkscape="http://www.inkscape.org/namespaces/inkscape"
   width="49px"
   height="345px"
   viewBox="0 0 49 345"
   version="1.1"
   id="svg4491"
   sodipodi:docname="feature-sprite.svg"
   inkscape:version="0.92.1 r15371">
  <metadata
     id="metadata4497">
    <rdf:RDF>
      <cc:Work
         rdf:about="">
        <dc:format>image/svg+xml</dc:format>
        <dc:type
           rdf:resource="http://purl.org/dc/dcmitype/StillImage" />
        <dc:title></dc:title>
      </cc:Work>
    </rdf:RDF>
  </metadata>
  <defs
     id="defs4495" />
  <sodipodi:namedview
     pagecolor="#ffffff"
     bordercolor="#666666"
     borderopacity="1"
     objecttolerance="10"
     gridtolerance="10"
     guidetolerance="10"
     inkscape:pageopacity="0"
     inkscape:pageshadow="2"
     inkscape:window-width="1920"
     inkscape:window-height="1018"
     id="namedview4493"
     showgrid="false"
     inkscape:zoom="0.85775127"
     inkscape:cx="-162.10532"
     inkscape:cy="53.322291"
     inkscape:window-x="-4"
     inkscape:window-y="-4"
     inkscape:window-maximized="1"
     inkscape:current-layer="svg4491" />
  <path
     fillRule="evenodd"
     d="M 48.07 27.3C 48.07 27.3 45.26 27.3 45.26 27.3 44.81 29.96 42.52 32 39.76 32 37 32 34.71 29.96 34.27 27.3 34.27 27.3 18.78 27.3 18.78 27.3 18.34 29.96 16.05 32 13.29 32 10.53 32 8.24 29.96 7.79 27.3 7.79 27.3 5.86 27.3 5.86 27.3 4.83 27.3 4 26.45 4 25.42 4 25.42 4 1.88 4 1.88 4 0.84 4.83-0 5.86-0 5.86-0 31.42-0 31.42-0 32.44-0 33.27 0.84 33.27 1.88 33.27 1.88 33.27 3.79 33.27 3.79 33.27 3.79 40.39 3.79 40.39 3.79 40.48 3.79 40.56 3.8 40.63 3.82 42.94 4.02 44.09 5.23 45.31 7.29 45.31 7.29 48.87 13.4 48.87 13.4 48.96 13.54 49 13.71 49 13.87 49 13.87 49 26.36 49 26.36 49 26.88 48.58 27.3 48.07 27.3ZM 13.29 30.12C 15.34 30.12 17.01 28.43 17.01 26.36 17.01 24.28 15.34 22.59 13.29 22.59 11.24 22.59 9.57 24.28 9.57 26.36 9.57 28.43 11.24 30.12 13.29 30.12ZM 31.42 1.88C 31.42 1.88 5.86 1.88 5.86 1.88 5.86 1.88 5.86 25.42 5.86 25.42 5.86 25.42 7.79 25.42 7.79 25.42 8.24 22.75 10.53 20.71 13.29 20.71 16.05 20.71 18.34 22.75 18.78 25.42 18.78 25.42 31.42 25.42 31.42 25.42 31.42 25.42 31.42 1.88 31.42 1.88ZM 39.76 30.12C 41.81 30.12 43.48 28.43 43.48 26.36 43.48 24.28 41.81 22.59 39.76 22.59 37.71 22.59 36.04 24.28 36.04 26.36 36.04 28.43 37.71 30.12 39.76 30.12ZM 43.82 8.43C 43.82 8.43 36.92 8.43 36.92 8.43 36.92 8.43 36.92 12.2 36.92 12.2 36.92 12.73 37.34 13.16 37.87 13.16 37.93 13.16 37.99 13.16 38.06 13.18 38.06 13.18 46.59 13.18 46.59 13.18 46.59 13.18 43.82 8.43 43.82 8.43ZM 47.14 16.06C 47.14 16.06 46.26 16.06 46.26 16.06 45.75 16.06 45.33 16.48 45.33 17 45.33 17 45.33 17.91 45.33 17.91 45.33 17.91 47.14 17.91 47.14 17.91 47.14 17.91 47.14 16.06 47.14 16.06ZM 47.14 19.79C 47.14 19.79 44.41 19.79 44.41 19.79 43.89 19.79 43.48 19.37 43.48 18.85 43.48 18.85 43.48 17 43.48 17 43.48 16.25 43.77 15.56 44.25 15.06 44.25 15.06 37.87 15.06 37.87 15.06 37.79 15.06 37.71 15.05 37.64 15.03 36.2 14.91 35.06 13.68 35.06 12.2 35.06 12.2 35.06 7.49 35.06 7.49 35.06 6.97 35.48 6.55 35.99 6.55 35.99 6.55 42.48 6.55 42.48 6.55 41.82 5.92 41.08 5.67 39.9 5.67 39.9 5.67 33.27 5.67 33.27 5.67 33.27 5.67 33.27 25.42 33.27 25.42 33.27 25.42 34.27 25.42 34.27 25.42 34.71 22.75 37 20.71 39.76 20.71 42.52 20.71 44.81 22.75 45.26 25.42 45.26 25.42 47.14 25.42 47.14 25.42 47.14 25.42 47.14 19.79 47.14 19.79ZM 39.76 23.57C 40.27 23.57 40.69 23.99 40.69 24.51 40.69 25.03 40.27 25.45 39.76 25.45 39.27 25.45 38.87 25.86 38.87 26.36 38.87 26.86 39.27 27.26 39.76 27.26 40.25 27.26 40.65 26.86 40.65 26.36 40.65 25.84 41.07 25.42 41.58 25.42 42.09 25.42 42.51 25.84 42.51 26.36 42.51 27.89 41.28 29.14 39.76 29.14 38.24 29.14 37.01 27.89 37.01 26.36 37.01 24.82 38.24 23.57 39.76 23.57ZM 7.75 4.73C 7.75 4.21 8.17 3.79 8.68 3.79 8.68 3.79 28.59 3.79 28.59 3.79 29.1 3.79 29.52 4.21 29.52 4.73 29.52 5.25 29.1 5.67 28.59 5.67 28.59 5.67 8.68 5.67 8.68 5.67 8.17 5.67 7.75 5.25 7.75 4.73ZM 13.29 23.57C 13.8 23.57 14.22 23.99 14.22 24.51 14.22 25.03 13.8 25.45 13.29 25.45 12.8 25.45 12.4 25.86 12.4 26.36 12.4 26.86 12.8 27.26 13.29 27.26 13.78 27.26 14.18 26.86 14.18 26.36 14.18 25.84 14.6 25.42 15.11 25.42 15.62 25.42 16.04 25.84 16.04 26.36 16.04 27.89 14.81 29.14 13.29 29.14 11.77 29.14 10.54 27.89 10.54 26.36 10.54 24.82 11.77 23.57 13.29 23.57Z"
     id="path4485"
     fill="rgb(241,109,127)" />
  <path
     fillRule="evenodd"
     d="M 40.58 173.03C 40.58 173.03 44 176 44 176 44 176 40.58 178.97 40.58 178.97 40.58 178.97 42.79 182.95 42.79 182.95 42.79 182.95 38.58 184.55 38.58 184.55 38.58 184.55 39.32 189.05 39.32 189.05 39.32 189.05 34.82 189.1 34.82 189.1 34.82 189.1 34 193.59 34 193.59 34 193.59 29.76 192.07 29.76 192.07 29.76 192.07 27.47 196 27.47 196 27.47 196 24 193.1 24 193.1 24 193.1 20.53 196 20.53 196 20.53 196 18.24 192.07 18.24 192.07 18.24 192.07 14 193.59 14 193.59 14 193.59 13.18 189.1 13.18 189.1 13.18 189.1 8.68 189.05 8.68 189.05 8.68 189.05 9.41 184.55 9.41 184.55 9.41 184.55 5.2 182.95 5.2 182.95 5.2 182.95 7.42 178.97 7.42 178.97 7.42 178.97 4 176 4 176 4 176 7.42 173.03 7.42 173.03 7.42 173.03 5.2 169.05 5.2 169.05 5.2 169.05 9.42 167.45 9.42 167.45 9.42 167.45 8.68 162.95 8.68 162.95 8.68 162.95 13.18 162.9 13.18 162.9 13.18 162.9 14 158.41 14 158.41 14 158.41 18.24 159.93 18.24 159.93 18.24 159.93 20.53 156 20.53 156 20.53 156 24 158.9 24 158.9 24 158.9 27.47 156 27.47 156 27.47 156 29.76 159.93 29.76 159.93 29.76 159.93 34 158.41 34 158.41 34 158.41 34.82 162.9 34.82 162.9 34.82 162.9 39.32 162.95 39.32 162.95 39.32 162.95 38.59 167.45 38.59 167.45 38.59 167.45 42.79 169.05 42.79 169.05 42.79 169.05 40.58 173.03 40.58 173.03ZM 37.92 169.25C 37.92 169.25 36.46 168.7 36.46 168.7 36.46 168.7 36.72 167.13 36.72 167.13 36.72 167.13 37.09 164.85 37.09 164.85 37.09 164.85 34.8 164.82 34.8 164.82 34.8 164.82 33.24 164.81 33.24 164.81 33.24 164.81 32.96 163.25 32.96 163.25 32.96 163.25 32.54 160.97 32.54 160.97 32.54 160.97 30.39 161.74 30.39 161.74 30.39 161.74 28.92 162.27 28.92 162.27 28.92 162.27 28.13 160.91 28.13 160.91 28.13 160.91 26.97 158.91 26.97 158.91 26.97 158.91 25.2 160.38 25.2 160.38 25.2 160.38 24 161.39 24 161.39 24 161.39 22.79 160.38 22.79 160.38 22.79 160.38 21.03 158.91 21.03 158.91 21.03 158.91 19.87 160.9 19.87 160.9 19.87 160.9 19.08 162.26 19.08 162.26 19.08 162.26 17.61 161.74 17.61 161.74 17.61 161.74 15.46 160.97 15.46 160.97 15.46 160.97 15.04 163.25 15.04 163.25 15.04 163.25 14.76 164.81 14.76 164.81 14.76 164.81 13.2 164.82 13.2 164.82 13.2 164.82 10.91 164.85 10.91 164.85 10.91 164.85 11.29 167.13 11.29 167.13 11.29 167.13 11.54 168.69 11.54 168.69 11.54 168.69 10.08 169.25 10.08 169.25 10.08 169.25 7.95 170.06 7.95 170.06 7.95 170.06 9.07 172.08 9.07 172.08 9.07 172.08 9.83 173.46 9.83 173.46 9.83 173.46 8.65 174.49 8.65 174.49 8.65 174.49 6.92 176 6.92 176 6.92 176 8.65 177.51 8.65 177.51 8.65 177.51 9.83 178.54 9.83 178.54 9.83 178.54 9.07 179.92 9.07 179.92 9.07 179.92 7.94 181.93 7.94 181.93 7.94 181.93 10.08 182.74 10.08 182.74 10.08 182.74 11.54 183.3 11.54 183.3 11.54 183.3 11.28 184.86 11.28 184.86 11.28 184.86 10.91 187.15 10.91 187.15 10.91 187.15 13.19 187.17 13.19 187.17 13.19 187.17 14.75 187.19 14.75 187.19 14.75 187.19 15.04 188.75 15.04 188.75 15.04 188.75 15.46 191.02 15.46 191.02 15.46 191.02 17.61 190.26 17.61 190.26 17.61 190.26 19.08 189.73 19.08 189.73 19.08 189.73 19.87 191.09 19.87 191.09 19.87 191.09 21.03 193.09 21.03 193.09 21.03 193.09 22.79 191.61 22.79 191.61 22.79 191.61 24 190.6 24 190.6 24 190.6 25.21 191.61 25.21 191.61 25.21 191.61 26.97 193.09 26.97 193.09 26.97 193.09 28.13 191.09 28.13 191.09 28.13 191.09 28.92 189.73 28.92 189.73 28.92 189.73 30.39 190.26 30.39 190.26 30.39 190.26 32.54 191.03 32.54 191.03 32.54 191.03 32.96 188.75 32.96 188.75 32.96 188.75 33.24 187.19 33.24 187.19 33.24 187.19 34.8 187.17 34.8 187.17 34.8 187.17 37.08 187.15 37.08 187.15 37.08 187.15 36.71 184.87 36.71 184.87 36.71 184.87 36.46 183.3 36.46 183.3 36.46 183.3 37.92 182.75 37.92 182.75 37.92 182.75 40.05 181.93 40.05 181.93 40.05 181.93 38.93 179.92 38.93 179.92 38.93 179.92 38.17 178.54 38.17 178.54 38.17 178.54 39.35 177.51 39.35 177.51 39.35 177.51 41.08 176 41.08 176 41.08 176 39.35 174.49 39.35 174.49 39.35 174.49 38.17 173.46 38.17 173.46 38.17 173.46 38.93 172.08 38.93 172.08 38.93 172.08 40.05 170.06 40.05 170.06 40.05 170.06 37.92 169.25 37.92 169.25ZM 28.67 183.43C 26.89 183.43 25.34 181.97 25.32 179.06 25.32 176.13 26.89 174.5 28.78 174.5 30.79 174.5 32.09 176.07 32.09 178.84 32.09 181.91 30.5 183.43 28.67 183.43ZM 28.72 175.69C 27.51 175.69 26.84 177.14 26.84 178.98 26.82 180.83 27.53 182.24 28.72 182.24 29.99 182.24 30.57 180.85 30.57 178.93 30.57 177.16 30.06 175.69 28.72 175.69ZM 19.2 183.39C 19.2 183.39 27.61 168.64 27.61 168.64 27.61 168.64 28.85 168.64 28.85 168.64 28.85 168.64 20.43 183.39 20.43 183.39 20.43 183.39 19.2 183.39 19.2 183.39ZM 19.33 177.41C 17.55 177.41 16.01 175.95 15.98 173.02 15.98 170.12 17.55 168.48 19.44 168.48 21.45 168.48 22.77 170.05 22.77 172.82 22.77 175.89 21.18 177.41 19.33 177.41ZM 19.38 169.67C 18.17 169.67 17.53 171.12 17.53 172.96 17.48 174.81 18.17 176.22 19.38 176.22 20.65 176.22 21.23 174.84 21.23 172.91 21.23 171.14 20.72 169.67 19.38 169.67Z"
     id="path4487"
     fill="rgb(241,109,127)" />
  <path
     fillRule="evenodd"
     d="M 42.37 318.55C 39.81 318.55 37.73 320.59 37.73 323.09 37.73 324.43 38.33 325.63 39.29 326.46 39.29 326.46 33.42 328.52 33.42 328.52 33.42 328.52 25.08 318.82 25.08 318.82 26.88 318.19 28.18 316.53 28.18 314.56 28.18 312.05 26.1 310.01 23.53 310.01 20.97 310.01 18.89 312.05 18.89 314.56 18.89 316.51 20.16 318.16 21.93 318.81 21.93 318.81 13.58 328.52 13.58 328.52 13.58 328.52 7.72 326.46 7.72 326.46 8.67 325.63 9.28 324.43 9.28 323.09 9.28 320.59 7.19 318.55 4.63 318.55 2.07 318.55-0.02 320.59-0.02 323.09-0.02 325.22 1.5 327.01 3.53 327.49 3.53 327.49 3.53 339.81 3.53 339.81 3.53 339.89 3.56 339.97 3.58 340.05 3.55 340.17 3.53 340.3 3.53 340.44 3.53 344.86 21.46 344.99 23.5 344.99 25.54 344.99 43.47 344.86 43.47 340.44 43.47 340.3 43.45 340.17 43.42 340.05 43.44 339.97 43.47 339.89 43.47 339.81 43.47 339.81 43.47 327.49 43.47 327.49 45.5 327.01 47.02 325.22 47.02 323.09 47.02 320.59 44.93 318.55 42.37 318.55ZM 21.15 314.56C 21.15 313.27 22.22 312.22 23.54 312.22 24.85 312.22 25.92 313.27 25.92 314.56 25.92 315.84 24.85 316.89 23.54 316.89 22.22 316.89 21.15 315.84 21.15 314.56ZM 13.56 330.87C 14 331.02 14.5 330.89 14.8 330.53 14.8 330.53 23.5 320.42 23.5 320.42 23.5 320.42 32.2 330.53 32.2 330.53 32.5 330.89 33 331.02 33.45 330.87 33.45 330.87 41.21 328.14 41.21 328.14 41.21 328.14 41.21 338.09 41.21 338.09 36.32 335.97 25.09 335.89 23.5 335.89 21.91 335.89 10.68 335.97 5.79 338.09 5.79 338.09 5.79 328.13 5.79 328.13 5.79 328.13 13.56 330.87 13.56 330.87ZM 23.5 342.78C 14.8 342.78 9.25 341.77 6.94 340.91 6.49 340.75 6.15 340.58 5.94 340.44 6.67 339.92 9.01 339.2 12.91 338.7 15.67 338.35 19.19 338.1 23.5 338.1 27.81 338.1 31.34 338.35 34.09 338.7 38 339.2 40.34 339.92 41.06 340.44 40.86 340.59 40.52 340.75 40.07 340.91 37.76 341.77 32.21 342.78 23.5 342.78ZM 2.25 323.09C 2.25 321.81 3.32 320.76 4.64 320.76 5.95 320.76 7.02 321.81 7.02 323.09 7.02 324.38 5.95 325.43 4.64 325.43 3.32 325.43 2.25 324.38 2.25 323.09ZM 42.37 325.43C 41.06 325.43 39.99 324.38 39.99 323.09 39.99 321.81 41.06 320.76 42.37 320.76 43.69 320.76 44.76 321.81 44.76 323.09 44.76 324.38 43.69 325.43 42.37 325.43Z"
     id="path4489"
     fill="rgb(241,109,127)" />
</svg>
